<?xml version="1.0" encoding="utf-8"?>
<!-- Generator: Adobe Illustrator 26.0.2, SVG Export Plug-In . SVG Version: 6.00 Build 0)  -->
<svg version="1.1" id="圖層_1" xmlns="http://www.w3.org/2000/svg" xmlns:xlink="http://www.w3.org/1999/xlink" x="0px" y="0px"
	 viewBox="0 0 1213.5 317.1" style="enable-background:new 0 0 1213.5 317.1;" xml:space="preserve">
<style>
	path {
		fill: url(#linear-gradient-white);
	}
</style>
<linearGradient id="linear-gradient-white" x1="-100%" y1="100%" x2="800%" y2="0" >
		<stop offset="0" stop-color="#fff">
				<animate attributeName="offset" values="0;0.8" dur="2s" repeatCount="indefinite"  /> 
		</stop>
		<stop offset="0" stop-color="#000">
				<animate attributeName="offset" values="0;0.8" dur="2s" repeatCount="indefinite"  /> 
		</stop>
		<stop offset="0.1" stop-color="#000">
				<animate attributeName="offset" values="0.1;1" dur="2s" repeatCount="indefinite"  /> 
		</stop>
		<stop offset="0.1" stop-color="#fff">
				<animate attributeName="offset" values="0.1;1" dur="2s" repeatCount="indefinite"  /> 
		</stop>
</linearGradient>
<path d="M326.6,242.8h-0.1l39.1-67.7h0.1l24.4-42.4H390l33.8-58.4h0.1l24.5-42.4h-50.7L251.4,285.2h50.7L326.6,242.8z M312.4,285.2
	h98l24.5-42.4h-98L312.4,285.2z M376,175.1h78.5l24.4-42.4h-78.4L376,175.1z M458.7,31.9l-24.5,42.4h94.2l24.5-42.4H458.7z
	 M814.3,74.3h50.6l0,0h71.8l24.5-42.4H767.7l-24.5,42.4H814.3z M809.1,83.2l-116.5,202h50.6l116.6-202H809.1z M137,214.1L137,214.1
	l41.6-72.2l0,0l63.6-110h-50.6L45.3,285.2h50.6L137,214.1z M382.7,31.9h-57.5L196,129.7l-1.3,155.5h55.4l1.3-153.5L382.7,31.9z
	 M611.4,31.9h-47.9L417.3,285.2h47.8L611.4,31.9z M1016.9,31.9h-45.2L825.5,285.2h138.8l24.4-42.4h-93.6L1016.9,31.9z M608.2,188.9
	l2.5-22l4.1-123l-47.9,82.8l-2.4,23.1L560,272.4L608.2,188.9z M562.9,285.2h47.9L757.1,31.9h-47.9L562.9,285.2z M974.8,285.2h45.1
	l146.3-253.3h-138.8l-24.5,42.4h93.7L974.8,285.2z M702.1,31.9H21.9l-4,6.9h680.2L702.1,31.9z M969.1,18.1H288.9l-4,6.9h680.2
	L969.1,18.1z M928.6,292.1H248.4l-4,6.9h680.2L928.6,292.1z M1195.6,278.4H476.4l-4,6.8h719.2L1195.6,278.4z"/>
</svg>
